<svg width="141" height="83" viewBox="0 0 141 83" fill="none" xmlns="http://www.w3.org/2000/svg">
<path d="M37.9645 4.94975C39.9171 2.99713 43.0829 2.99713 45.0355 4.94975L78.0502 37.9645C80.0029 39.9171 80.0029 43.0829 78.0503 45.0355L45.0355 78.0502C43.0829 80.0029 39.9171 80.0029 37.9645 78.0503L4.94975 45.0355C2.99713 43.0829 2.99713 39.9171 4.94975 37.9645L37.9645 4.94975Z" stroke="#DC5E74" stroke-width="2"/>
<path d="M31.856 38.272C33.68 38.272 35.216 39.392 35.216 41.344H28.368C28.688 39.36 30.064 38.272 31.856 38.272ZM40.4 46.08H34.576C34.128 47.04 33.264 47.808 31.728 47.808C29.968 47.808 28.528 46.72 28.336 44.384H40.72C40.784 43.84 40.816 43.296 40.816 42.784C40.816 37.344 37.136 33.888 31.92 33.888C26.608 33.888 22.896 37.408 22.896 43.072C22.896 48.736 26.672 52.256 31.92 52.256C36.368 52.256 39.536 49.568 40.4 46.08ZM44.9828 29.536V52H57.6228V47.776H50.4548V29.536H44.9828ZM69.3848 38.272C71.2088 38.272 72.7448 39.392 72.7448 41.344H65.8968C66.2168 39.36 67.5928 38.272 69.3848 38.272ZM77.9288 46.08H72.1048C71.6568 47.04 70.7928 47.808 69.2568 47.808C67.4968 47.808 66.0568 46.72 65.8648 44.384H78.2488C78.3128 43.84 78.3448 43.296 78.3448 42.784C78.3448 37.344 74.6648 33.888 69.4488 33.888C64.1368 33.888 60.4248 37.408 60.4248 43.072C60.4248 48.736 64.2008 52.256 69.4488 52.256C73.8968 52.256 77.0648 49.568 77.9288 46.08ZM81.4235 43.04C81.4235 48.672 84.9115 52.256 89.2635 52.256C91.9195 52.256 93.8075 51.04 94.7995 49.472V52H100.272V34.144H94.7995V36.672C93.8395 35.104 91.9515 33.888 89.2955 33.888C84.9115 33.888 81.4235 37.408 81.4235 43.04ZM94.7995 43.072C94.7995 45.92 92.9755 47.488 90.8955 47.488C88.8475 47.488 86.9915 45.888 86.9915 43.04C86.9915 40.192 88.8475 38.656 90.8955 38.656C92.9755 38.656 94.7995 40.224 94.7995 43.072ZM110.982 43.712C110.982 40.64 112.486 39.744 115.078 39.744H116.582V33.952C114.182 33.952 112.23 35.232 110.982 37.12V34.144H105.51V52H110.982V43.712ZM132.798 52H138.238V41.568C138.238 36.768 135.486 33.952 131.358 33.952C128.958 33.952 127.038 35.008 125.95 36.512V34.144H120.478V52H125.95V42.304C125.95 39.872 127.294 38.528 129.374 38.528C131.454 38.528 132.798 39.872 132.798 42.304V52Z" fill="white"/>
</svg>
